HIERARCHY
ROOT Pelvis
{
	OFFSET 0.000000 0.000000 0.000000
	CHANNELS 6 Xposition Yposition Zposition Xrotation Yrotation Zrotation
	JOINT LeftUpLeg_virtual
	{
		OFFSET 0.000000 0.000000 0.000000
		CHANNELS 3 Xrotation Yrotation Zrotation
		JOINT LeftUpLeg
		{
			OFFSET 18.735201 -5.666702 -4.541200
			CHANNELS 3 Xrotation Yrotation Zrotation
			JOINT LeftLeg
			{
				OFFSET -0.021200 -31.938179 0.493100
				CHANNELS 3 Xrotation Yrotation Zrotation
				JOINT LeftFoot
				{
					OFFSET 0.021200 -31.938179 -4.336299
					CHANNELS 3 Xrotation Yrotation Zrotation
					JOINT LeftToeBase
					{
						OFFSET 0.943001 -26.722000 15.023500
						CHANNELS 3 Xrotation Yrotation Zrotation
						End Site
						{
							OFFSET 0 0 0
						}
					}
				}
			}
		}
	}
	JOINT RightUpLeg_virtual
	{
		OFFSET 0.000000 0.000000 0.000000
		CHANNELS 3 Xrotation Yrotation Zrotation
		JOINT RightUpLeg
		{
			OFFSET -18.735201 -5.666702 -4.541200
			CHANNELS 3 Xrotation Yrotation Zrotation
			JOINT RightLeg
			{
				OFFSET 0.018946 -31.938133 0.493100
				CHANNELS 3 Xrotation Yrotation Zrotation
				JOINT RightFoot
				{
					OFFSET -0.018946 -31.938126 -4.336299
					CHANNELS 3 Xrotation Yrotation Zrotation
					JOINT RightToeBase
					{
						OFFSET -0.943001 -26.722004 15.023500
						CHANNELS 3 Xrotation Yrotation Zrotation
						End Site
						{
							OFFSET 0 0 0
						}
					}
				}
			}
		}
	}
	JOINT Hips_virtual
	{
		OFFSET 0.000000 0.000000 0.000000
		CHANNELS 3 Xrotation Yrotation Zrotation
		JOINT Hips
		{
			OFFSET -0.000000 -0.000000 -0.000000
			CHANNELS 3 Xrotation Yrotation Zrotation
			JOINT Spine
			{
				OFFSET 0.000000 10.199997 -0.299500
				CHANNELS 3 Xrotation Yrotation Zrotation
				JOINT Spine1
				{
					OFFSET 0.000000 11.900002 -1.516600
					CHANNELS 3 Xrotation Yrotation Zrotation
					JOINT Spine2
					{
						OFFSET 0.000000 13.600006 -2.842500
						CHANNELS 3 Xrotation Yrotation Zrotation
						JOINT Neck_virtual
						{
							OFFSET 0.000000 0.000000 0.000000
							CHANNELS 3 Xrotation Yrotation Zrotation
							JOINT Neck
							{
								OFFSET 0.000000 9.624100 -2.890100
								CHANNELS 3 Xrotation Yrotation Zrotation
								JOINT Head
								{
									OFFSET 0.000000 14.068802 -1.351900
									CHANNELS 3 Xrotation Yrotation Zrotation
									End Site
									{
										OFFSET 0 0 0
									}
								}
							}
						}
						JOINT LeftShoulder_virtual
						{
							OFFSET 0.000000 0.000000 0.000000
							CHANNELS 3 Xrotation Yrotation Zrotation
							JOINT LeftShoulder
							{
								OFFSET 15.263000 10.923401 -0.547700
								CHANNELS 3 Xrotation Yrotation Zrotation
								JOINT LeftArm
								{
									OFFSET 25.438599 -2.830597 -13.032500
									CHANNELS 3 Xrotation Yrotation Zrotation
									JOINT LeftForeArm
									{
										OFFSET 29.960503 0.000000 0.000000
										CHANNELS 3 Xrotation Yrotation Zrotation
										JOINT LeftHand
										{
											OFFSET 27.849251 0.000000 0.000000
											CHANNELS 3 Xrotation Yrotation Zrotation
											End Site
											{
												OFFSET 0 0 0
											}
										}
									}
								}
							}
						}
						JOINT RightShoulder_virtual
						{
							OFFSET 0.000000 0.000000 0.000000
							CHANNELS 3 Xrotation Yrotation Zrotation
							JOINT RightShoulder
							{
								OFFSET -15.263000 10.923401 -0.547700
								CHANNELS 3 Xrotation Yrotation Zrotation
								JOINT RightArm
								{
									OFFSET -25.438599 -2.830597 -13.032500
									CHANNELS 3 Xrotation Yrotation Zrotation
									JOINT RightForeArm
									{
										OFFSET -29.960503 0.000000 0.000000
										CHANNELS 3 Xrotation Yrotation Zrotation
										JOINT RightHand
										{
											OFFSET -27.849251 0.000000 0.000000
											CHANNELS 3 Xrotation Yrotation Zrotation
											End Site
											{
												OFFSET 0 0 0
											}
										}
									}
								}
							}
						}
					}
				}
			}
		}
	}
}
MOTION
Frames: 8
Frame Time: 0.03333333
0.421589 111.917885 2.971680 0.000000 0.000000 0.000000 -89.648275 0.339598 0.802207 -11.718439 14.652556 23.035865 13.259342 6.355157 0.135431 29.019524 29.282957 -33.793003 0.000000 0.000000 0.000000 -89.648275 0.339598 0.802207 -14.201898 -13.648352 -17.299590 15.221013 -6.797415 -7.432231 38.740126 -29.043102 33.820645 0.000000 0.000000 0.000000 -89.648275 0.339598 0.802207 0.000000 0.000000 0.000000 1.065097 -1.161529 0.872956 -0.317547 -2.434542 0.230484 0.000000 0.000000 0.000000 -0.303419 -2.418347 0.331942 -3.650655 0.013985 -0.656594 0.000000 0.000000 0.000000 -0.303419 -2.418347 0.331942 0.422258 -0.102939 -3.997470 35.266551 -28.376656 -54.536950 0.000170 -80.459622 0.000165 0.000000 0.000000 0.000000 -0.303419 -2.418347 0.331942 0.672261 1.791888 13.905686 39.524413 30.882062 33.636353 -179.998215 78.646650 179.998229 0.000000 0.000000 0.000000 
0.419241 111.916237 2.966599 0.000000 0.000000 0.000000 -89.647619 0.339011 0.803798 -11.722475 14.621605 23.053910 13.361023 6.369222 0.116248 29.022594 29.281267 -33.761229 0.000000 0.000000 0.000000 -89.647619 0.339011 0.803798 -14.203506 -13.652548 -17.288775 15.215870 -6.805437 -7.448110 38.712887 -29.050120 33.811991 0.000000 0.000000 0.000000 -89.647619 0.339011 0.803798 0.000000 0.000000 0.000000 1.065375 -1.294433 0.871702 -0.267800 -2.803663 0.269862 0.000000 0.000000 0.000000 -0.275045 -2.540292 0.378854 -3.710821 0.011475 -0.666554 0.000000 0.000000 0.000000 -0.275045 -2.540292 0.378854 0.286866 1.338427 -4.208839 35.597402 -28.973939 -53.870679 -0.000207 -80.449882 -0.000196 0.000000 0.000000 0.000000 -0.275045 -2.540292 0.378854 0.632469 1.910001 13.900114 39.216802 31.338465 32.961639 -179.999158 78.486038 179.999172 0.000000 0.000000 0.000000 
0.420051 111.920670 2.963715 0.000000 0.000000 0.000000 -89.646807 0.338218 0.803922 -11.708304 14.622911 23.053324 13.354975 6.381757 0.092134 29.087501 29.273760 -33.751076 0.000000 0.000000 0.000000 -89.646807 0.338218 0.803922 -14.215349 -13.651042 -17.258350 15.298384 -6.795707 -7.487468 38.578186 -29.102511 33.799198 0.000000 0.000000 0.000000 -89.646807 0.338218 0.803922 0.000000 0.000000 0.000000 1.071518 -1.479005 0.873536 -0.122002 -3.167864 0.318245 0.000000 0.000000 0.000000 -0.192742 -2.885991 0.467763 -3.735804 0.005652 -0.673395 0.000000 0.000000 0.000000 -0.192742 -2.885991 0.467763 0.143295 2.780179 -4.408304 35.798066 -29.342127 -53.528001 0.000033 -80.441160 0.000036 0.000000 0.000000 0.000000 -0.192742 -2.885991 0.467763 0.595529 2.019711 13.895002 37.989410 32.092296 32.256347 -179.995579 78.039856 179.995634 0.000000 0.000000 0.000000 
0.415044 111.921814 2.960220 0.000000 0.000000 0.000000 -89.641916 0.320379 0.806497 -11.683565 14.625609 23.057694 13.346238 6.422316 0.064007 29.145230 29.266025 -33.741906 0.000000 0.000000 0.000000 -89.641916 0.320379 0.806497 -14.243607 -13.647083 -17.207888 15.428460 -6.779239 -7.546422 38.355317 -29.181088 33.776153 0.000000 0.000000 0.000000 -89.641916 0.320379 0.806497 0.000000 0.000000 0.000000 1.019098 -1.599325 0.873749 -0.004332 -3.399447 0.363598 0.000000 0.000000 0.000000 -0.116509 -3.107313 0.517954 -3.727421 -0.002484 -0.683563 0.000000 0.000000 0.000000 -0.116509 -3.107313 0.517954 -0.087596 3.411969 -4.598579 36.070236 -29.254721 -53.441613 0.000065 -80.534105 0.000073 0.000000 0.000000 0.000000 -0.116509 -3.107313 0.517954 0.552938 2.146241 13.889197 36.351250 32.916225 31.673073 179.999786 77.555439 -179.999786 0.000000 0.000000 0.000000 
0.407348 111.924713 2.955299 0.000000 0.000000 0.000000 -89.634178 0.283030 0.812564 -11.648299 14.635299 23.061393 13.320652 6.456154 0.029934 29.186986 29.257583 -33.733741 0.000000 0.000000 0.000000 -89.634178 0.283030 0.812564 -14.287620 -13.638942 -17.148966 15.594761 -6.757801 -7.618866 38.063480 -29.260626 33.738969 0.000000 0.000000 0.000000 -89.634178 0.283030 0.812564 0.000000 0.000000 0.000000 0.971767 -1.709793 0.863116 0.194116 -3.606527 0.416353 0.000000 0.000000 0.000000 0.025596 -3.299262 0.562685 -3.707550 -0.013098 -0.697411 0.000000 0.000000 0.000000 0.025596 -3.299262 0.562685 -0.239447 3.890322 -4.805996 36.148144 -29.060416 -53.421611 -0.000073 -80.642350 -0.000074 0.000000 0.000000 0.000000 0.025596 -3.299262 0.562685 0.496194 2.314827 13.881614 34.462484 33.833933 31.298153 -179.997505 77.311642 179.997546 0.000000 0.000000 0.000000 
0.397088 111.932137 2.953415 0.000000 0.000000 0.000000 -89.624083 0.207646 0.823626 -11.590165 14.665437 23.059376 13.240284 6.513589 -0.012576 29.178097 29.251460 -33.732911 0.000000 0.000000 0.000000 -89.624083 0.207646 0.823626 -14.352669 -13.623692 -17.092601 15.774744 -6.746073 -7.699176 37.766063 -29.313540 33.706536 0.000000 0.000000 0.000000 -89.624083 0.207646 0.823626 0.000000 0.000000 0.000000 0.921425 -1.775189 0.846366 0.426498 -3.721047 0.468492 0.000000 0.000000 0.000000 0.187563 -3.405774 0.586444 -3.665275 -0.026016 -0.714471 0.000000 0.000000 0.000000 0.187563 -3.405774 0.586444 -0.244873 3.866962 -5.058929 36.000240 -28.562989 -53.551473 0.000093 -80.810659 0.000091 0.000000 0.000000 0.000000 0.187563 -3.405774 0.586444 0.420553 2.585589 13.884513 32.157989 34.718446 31.307801 -179.998120 77.379876 179.998134 0.000000 0.000000 0.000000 
0.380007 111.951546 2.950228 0.000000 0.000000 0.000000 -89.611904 0.121130 0.840782 -11.516851 14.713151 23.051233 13.129322 6.568397 -0.055737 29.127246 29.247553 -33.731497 0.000000 0.000000 0.000000 -89.611904 0.121130 0.840782 -14.431389 -13.603613 -17.039077 15.967767 -6.734622 -7.781786 37.452567 -29.337298 33.634358 0.000000 0.000000 0.000000 -89.611904 0.121130 0.840782 0.000000 0.000000 0.000000 0.873123 -1.785769 0.830820 0.768287 -3.725309 0.515754 0.000000 0.000000 0.000000 0.446249 -3.410711 0.585425 -3.645468 -0.042201 -0.734549 0.000000 0.000000 0.000000 0.446249 -3.410711 0.585425 -0.247529 3.634490 -5.320401 35.720510 -28.101285 -53.559205 -0.000015 -80.968478 -0.000033 0.000000 0.000000 0.000000 0.446249 -3.410711 0.585425 0.335290 2.897684 13.887835 29.551360 35.490339 31.411760 179.999308 77.256208 -179.999322 0.000000 0.000000 0.000000 
0.361683 111.975861 2.943680 0.000000 0.000000 0.000000 -89.569462 0.013019 0.844059 -11.437579 14.747188 23.048422 13.068131 6.613443 -0.085667 29.004053 29.247307 -33.735609 0.000000 0.000000 0.000000 -89.569462 0.013019 0.844059 -14.539166 -13.582551 -16.958800 16.191691 -6.723015 -7.861380 37.020233 -29.366873 33.508246 0.000000 0.000000 0.000000 -89.569462 0.013019 0.844059 0.000000 0.000000 0.000000 0.831493 -1.752668 0.804658 1.219289 -3.639524 0.557549 0.000000 0.000000 0.000000 0.803205 -3.324208 0.563890 -3.592084 -0.059735 -0.757412 0.000000 0.000000 0.000000 0.803205 -3.324208 0.563890 -0.260808 3.387644 -5.581856 35.314496 -27.786263 -53.389468 -0.000080 -81.098586 -0.000066 0.000000 0.000000 0.000000 0.803205 -3.324208 0.563890 0.243025 3.244237 13.891637 26.512817 36.202349 31.701541 -179.999732 76.992030 179.999718 0.000000 0.000000 0.000000 
